Coordinates
version=1
nRows=11
nColumns=40
inDegrees=yes

Units are S.I. units (second, meters, Newtons, ...)
If the header above contains a line with 'inDegrees', this indicates whether rotational values are in degrees (yes) or radians (no).

endheader
time	pelvis_tilt	pelvis_list	pelvis_rotation	pelvis_tx	pelvis_ty	pelvis_tz	hip_flexion_r	hip_adduction_r	hip_rotation_r	knee_angle_r	knee_angle_r_beta	ankle_angle_r	subtalar_angle_r	mtp_angle_r	hip_flexion_l	hip_adduction_l	hip_rotation_l	knee_angle_l	knee_angle_l_beta	ankle_angle_l	subtalar_angle_l	mtp_angle_l	lumbar_extension	lumbar_bending	lumbar_rotation	arm_flex_r	arm_add_r	arm_rot_r	elbow_flex_r	pro_sup_r	wrist_flex_r	wrist_dev_r	arm_flex_l	arm_add_l	arm_rot_l	elbow_flex_l	pro_sup_l	wrist_flex_l	wrist_dev_l
     18.37500000	     17.95088254	     -5.37434339	    175.34829615	      0.31357132	      0.90973120	     -0.59021247	     45.08345703	     -8.95933478	     -2.79257816	     30.43152643	      0.53113033	      3.73178390	      0.00000000	      0.00000000	     41.10457863	     -2.18076807	     -9.07835876	     27.41413806	      0.47846697	      6.26342669	      0.00000000	      0.00000000	    -36.07447420	     -4.00109336	     -1.65496110	     40.58390004	    -15.47600363	     49.01589072	     11.02941164	     11.46717387	      0.00000000	      0.00000000	     48.83868590	    -17.70638543	     52.97739555	     15.66883452	     84.25639642	      0.00000000	      0.00000000
     18.38000000	     17.78967470	     -5.58031793	    175.12958058	      0.31266100	      0.91032114	     -0.59076159	     44.92152245	     -8.94832592	     -2.38457429	     30.39845324	      0.53055310	      3.72855097	      0.00000000	      0.00000000	     40.75388863	     -2.12532450	     -9.39030770	     27.24007323	      0.47542897	      6.25828316	      0.00000000	      0.00000000	    -35.64143520	     -4.34072669	     -1.65934487	     40.17908327	    -15.20703932	     48.63975385	     10.71774349	     12.37295801	      0.00000000	      0.00000000	     48.30439040	    -17.74459173	     52.62326620	     15.59081651	     83.41278831	      0.00000000	      0.00000000
     18.38500000	     17.41216437	     -5.41040950	    175.45742346	      0.31141011	      0.91150155	     -0.59012061	     44.26432703	     -9.13186780	     -2.84096296	     30.30696372	      0.52895630	      3.87188456	      0.00000000	      0.00000000	     40.20072563	     -1.94859117	     -8.99045646	     27.02968447	      0.47175699	      6.21761914	      0.00000000	      0.00000000	    -35.53163171	     -3.98744749	     -1.81971781	     39.69222140	    -15.46824331	     49.00436835	     11.03731233	     12.60979042	      0.00000000	      0.00000000	     47.97275525	    -17.94103186	     53.61920542	     15.85073206	     83.98065195	      0.00000000	      0.00000000
     18.39000000	     17.34037897	     -5.46423789	    175.41777524	      0.31054794	      0.91186246	     -0.59016350	     44.15743750	     -9.14846205	     -2.71023624	     30.33101563	      0.52937609	      3.89494273	      0.00000000	      0.00000000	     40.06294532	     -1.91729099	     -9.08587238	     27.03811797	      0.47190418	      6.23635561	      0.00000000	      0.00000000	    -35.01779518	     -4.04799473	     -1.87225102	     39.29301919	    -15.22969114	     48.52674697	     10.80501089	     12.64534274	      0.00000000	      0.00000000	     47.41436709	    -17.97363463	     52.98902278	     15.80308561	     84.59441002	      0.00000000	      0.00000000
     18.39500000	     17.28622826	     -5.52569585	    175.35287306	      0.30972756	      0.91227356	     -0.59028020	     44.02980244	     -9.13986608	     -2.54622064	     30.26146940	      0.52816228	      3.93962078	      0.00000000	      0.00000000	     39.91418543	     -1.90016072	     -9.22003232	     26.99431259	      0.47113963	      6.17873889	      0.00000000	      0.00000000	    -34.50442152	     -4.13240129	     -1.87133785	     38.90525151	    -15.04155685	     48.05125688	     10.59084887	     12.93866341	      0.00000000	      0.00000000	     46.88876663	    -17.97663339	     52.41299270	     15.74123776	     84.87400798	      0.00000000	      0.00000000
     18.40000000	     16.49112418	     -5.42194572	    175.48987077	      0.30801650	      0.91463076	     -0.58995424	     42.78554931	     -9.27579757	     -2.84792763	     29.86513721	      0.52124498	      3.94816262	      0.00000000	      0.00000000	     38.63516225	     -1.67786669	     -8.91282645	     26.32939775	      0.45953468	      6.13014700	      0.00000000	      0.00000000	    -34.88919617	     -3.95109607	     -1.98039936	     38.47945479	    -15.37567110	     49.03377321	     11.02299232	     12.70782755	      0.00000000	      0.00000000	     46.60012540	    -18.05188280	     53.04535315	     15.85723401	     84.21288307	      0.00000000	      0.00000000
     18.40500000	     16.41316955	     -5.51568160	    175.50129110	      0.30721694	      0.91519335	     -0.58984812	     42.62008735	     -9.36825021	     -2.73347679	     29.78098207	      0.51977619	      3.93628861	      0.00000000	      0.00000000	     38.36564794	     -1.53526042	     -8.95552335	     26.06132341	      0.45485590	      6.07163078	      0.00000000	      0.00000000	    -34.40581724	     -4.02684335	     -2.09093171	     38.06484698	    -15.32376612	     49.20185846	     10.97003887	     13.14787051	      0.00000000	      0.00000000	     46.09959183	    -18.21882861	     53.27858890	     16.00162074	     83.83527608	      0.00000000	      0.00000000
     18.41000000	     16.34796215	     -5.53236718	    175.36534855	      0.30636594	      0.91562056	     -0.59015200	     42.46216768	     -9.27784771	     -2.59775379	     29.67513018	      0.51792873	      3.94276058	      0.00000000	      0.00000000	     38.18799193	     -1.59706876	     -9.09063305	     26.00613922	      0.45389276	      6.13128038	      0.00000000	      0.00000000	    -33.89833905	     -4.11201654	     -1.95908357	     37.66040737	    -15.22475784	     48.97625744	     10.73390715	     13.74888720	      0.00000000	      0.00000000	     45.59894662	    -18.16105224	     52.98594164	     15.89137506	     83.49377134	      0.00000000	      0.00000000
     18.41500000	     16.00837419	     -5.47799389	    175.45105514	      0.30504218	      0.91673908	     -0.58984435	     41.87141770	     -9.35160318	     -2.72204326	     29.49302010	      0.51475031	      3.97626384	      0.00000000	      0.00000000	     37.63911543	     -1.50823194	     -9.06110840	     25.79930926	      0.45028289	      6.06274424	      0.00000000	      0.00000000	    -33.70571900	     -3.98968484	     -2.03456846	     37.21108146	    -15.26656033	     49.13412522	     10.77522463	     14.02057459	      0.00000000	      0.00000000	     45.11730307	    -18.16742515	     53.12092707	     15.90512751	     83.67028661	      0.00000000	      0.00000000
     18.42000000	     15.93747290	     -5.49432721	    175.35596226	      0.30435359	      0.91727057	     -0.59007197	     41.69824678	     -9.29697116	     -2.63262817	     29.36748719	      0.51255934	      3.97647215	      0.00000000	      0.00000000	     37.38484493	     -1.50541957	     -9.06449035	     25.56051076	      0.44611507	      6.06686728	      0.00000000	      0.00000000	    -33.24078657	     -4.06196946	     -1.94700381	     36.83768982	    -15.25373423	     49.09055011	     10.72908947	     14.42362747	      0.00000000	      0.00000000	     44.71642614	    -18.25256883	     52.99130355	     15.94228447	     83.63964649	      0.00000000	      0.00000000
     18.42500000	     15.49758140	     -5.35435057	    175.47758822	      0.30298019	      0.91864859	     -0.58978326	     40.91232126	     -9.34609418	     -2.94928458	     29.07942648	      0.50753174	      3.99990798	      0.00000000	      0.00000000	     36.72404800	     -1.45760370	     -8.87568072	     25.36119835	      0.44263641	      6.04903336	      0.00000000	      0.00000000	    -33.20066567	     -3.86949711	     -2.00134781	     36.36509045	    -15.56558139	     49.74929746	     11.11685241	     14.46186525	      0.00000000	      0.00000000	     44.35210241	    -18.40522101	     53.52894860	     16.17065226	     83.95031832	      0.00000000	      0.00000000
